Coordinates
version=1
nRows=12
nColumns=24
inDegrees=yes

Units are S.I. units (second, meters, Newtons, ...)
Angles are in degrees.

endheader
time	pelvis_tilt	pelvis_list	pelvis_rotation	pelvis_tx	pelvis_ty	pelvis_tz	hip_flexion_r	hip_adduction_r	hip_rotation_r	knee_angle_r	ankle_angle_r	subtalar_angle_r	mtp_angle_r	hip_flexion_l	hip_adduction_l	hip_rotation_l	knee_angle_l	ankle_angle_l	subtalar_angle_l	mtp_angle_l	lumbar_extension	lumbar_bending	lumbar_rotation
      1.26750000	     -1.55717756	     -2.20299163	     -7.94997688	     -0.00463607	      0.96112238	      0.34352865	    -17.43803959	      3.15631323	     -0.61375826	     -8.78486622	     10.58599072	      7.89179541	     13.52704385	     27.27231412	     -2.88946257	     -7.12663919	     -0.35375554	      7.17173583	     -2.23404767	      0.39118457	      0.26266013	      6.37083457	     11.39037056
      1.27166667	     -1.59342611	     -2.10825293	     -8.02293812	      0.00139981	      0.96039237	      0.34326712	    -17.60951622	      2.94890770	     -0.66180786	     -9.03723165	     10.40362425	      7.95399345	     13.59483400	     27.31787011	     -2.79567060	     -7.20508551	     -0.56765444	      7.07037040	     -2.46221920	      0.39656981	      0.37954249	      6.25089993	     11.45175642
      1.27583333	     -1.63583240	     -1.99834417	     -8.06827936	      0.00746417	      0.95965967	      0.34291443	    -17.75547935	      2.72357042	     -0.81391196	     -9.31597725	     10.19467995	      8.27059719	     13.84994155	     27.36652062	     -2.66548992	     -7.13181520	     -0.81658418	      6.83213252	     -2.95436324	      0.42741496	      0.49115981	      6.14337312	     11.60377964
      1.28000000	     -1.67872475	     -1.87364575	     -8.13645749	      0.01357123	      0.95898951	      0.34264537	    -17.89990766	      2.48992149	     -0.83961159	     -9.60104923	     10.01297064	      8.24924370	     13.94517226	     27.45090941	     -2.54608675	     -7.20292679	     -1.20565240	      6.72078280	     -3.21873380	      0.44002329	      0.60994641	      5.98111357	     11.61402438
      1.28416667	     -1.73723157	     -1.74294936	     -8.18523462	      0.01969657	      0.95831144	      0.34228575	    -18.00366061	      2.24614230	     -0.95857348	     -9.92207368	      9.79588858	      8.46009438	     14.45923974	     27.52852677	     -2.39626401	     -7.06424875	     -1.58113462	      6.43898454	     -3.91456237	      0.52773335	      0.74432330	      5.85400026	     11.70386182
      1.28833333	     -1.82280729	     -1.60683638	     -8.21579643	      0.02589791	      0.95765426	      0.34195210	    -18.11115664	      2.02051629	     -0.98838788	    -10.17385762	      9.46463808	      8.43781159	     14.78924811	     27.68211347	     -2.25313178	     -7.07540533	     -2.09388409	      6.14926188	     -4.29063598	      0.58886490	      0.94153399	      5.70803243	     11.74807926
      1.29250000	     -1.89482036	     -1.45116382	     -8.27155767	      0.03209297	      0.95705290	      0.34159998	    -18.17935959	      1.75659699	     -1.04356238	    -10.52780592	      9.20590300	      8.44421842	     15.36768378	     27.79589475	     -2.08562541	     -6.97379393	     -2.59818237	      5.85777276	     -4.97804819	      0.70949625	      1.09490504	      5.54231595	     11.80399154
      1.29666667	     -1.91421558	     -1.25935771	     -8.27286943	      0.03841927	      0.95653312	      0.34120176	    -18.33323557	      1.46053801	     -1.19482351	    -10.80542095	      8.76609122	      8.41991632	     19.63980981	     27.88446496	     -1.86118679	     -6.98035264	     -3.18400527	      5.53586977	     -5.40656108	      1.68984468	      1.22318932	      5.30950797	     11.80097858
      1.30083333	     -2.01229416	     -1.07811383	     -8.32164246	      0.04471284	      0.95599261	      0.34087751	    -18.36912942	      1.18779045	     -1.18120359	    -11.15770933	      8.44063413	      8.26451976	     19.65816724	     28.07099750	     -1.68432234	     -7.04757658	     -3.83964901	      5.23302466	     -5.77240930	      1.68888008	      1.43898925	      5.09667529	     11.83483716
      1.30500000	     -2.14775456	     -0.91766449	     -8.32664371	      0.05102070	      0.95543383	      0.34046027	    -18.37394012	      0.95663322	     -1.17902406	    -11.48548537	      8.04272003	      8.15419845	     19.75327371	     28.28600309	     -1.49616097	     -6.91177880	     -4.48287049	      4.78734333	     -6.47075363	      1.70647993	      1.70850163	      4.94032247	     11.89519458
      1.30916667	     -2.25726704	     -0.71853541	     -8.33338203	      0.05737203	      0.95495723	      0.34002453	    -18.38019671	      0.67719181	     -1.20135305	    -11.85163500	      7.61752913	      8.02466632	     19.90950570	     28.46928315	     -1.26428321	     -6.80963076	     -5.13507975	      4.34887479	     -7.11399719	      1.74073008	      1.92928614	      4.73521474	     11.91947583
      1.31333333	     -2.35830974	     -0.51482869	     -8.33000232	      0.06376038	      0.95453844	      0.33958774	    -18.38338400	      0.39741841	     -1.22632423	    -12.23714400	      7.15888353	      7.87252648	     20.10921416	     28.64917929	     -1.02423783	     -6.73716247	     -5.81647162	      3.90962845	     -7.69902795	      1.78511358	      2.16312994	      4.50960062	     11.93628281
